{
.appVersion = "3151";
.formatVersion = 3;
DisplayStrings = (
"CHUMA
MAMBO
ERAND
AFRICAN
BABES
E123456/six.001 7/seven.001 CEF
HAMBURGEÉFONTSIV
KLMNOQRSTUVWXYCZ
hamburgeéfontsiv
012345/five.001 6789
.;,@?!()$-€&
 





",
"2",
b
);
date = "2023-11-07 14:50:43 +0000";
familyName = Mambo;
fontMaster = (
{
guides = (
{
pos = (1461,-149);
},
{
locked = 1;
pos = (-1,846);
},
{
locked = 1;
pos = (3,747);
},
{
locked = 1;
pos = (722,47);
},
{
locked = 1;
pos = (720,469);
},
{
},
{
locked = 1;
pos = (660,329);
}
);
id = m01;
metricValues = (
{
over = 20;
pos = 900;
},
{
over = 20;
pos = 800;
},
{
over = 20;
pos = 600;
},
{
over = -20;
},
{
over = -20;
pos = -500;
},
{
over = -16;
}
);
name = Regular;
userData = {
GSCornerRadius = 40;
};
}
);
glyphs = (
{
glyphname = A;
lastChange = "2023-12-13 20:43:30 +0000";
layers = (
{
layerId = m01;
shapes = (
{
closed = 1;
nodes = (
(339,584,o),
(323,728,o),
(369,728,cs),
(400,728,o),
(391,582,o),
(390,554,cs),
(386,399,o),
(377,210,o),
(379,40,cs),
(379,17,o),
(396,0,o),
(419,0,cs),
(686,0,ls),
(715,0,o),
(735,24,o),
(728,53,cs),
(663,338,o),
(513,823,o),
(364,823,cs),
(216,823,o),
(65,338,o),
(1,53,cs),
(-5,24,o),
(15,0,o),
(44,0,cs),
(314,0,ls),
(337,0,o),
(354,17,o),
(354,40,cs),
(354,210,o),
(344,399,o),
(340,554,cs)
);
},
{
closed = 1;
nodes = (
(344,243,l),
(389,243,l),
(389,298,l),
(344,298,l)
);
}
);
width = 729;
}
);
unicode = 65;
},
{
glyphname = B;
lastChange = "2023-12-08 08:05:19 +0000";
layers = (
{
layerId = m01;
shapes = (
{
closed = 1;
nodes = (
(193,734,ls),
(192,735,o),
(191,737,o),
(192,738,cs),
(193,741,o),
(198,740,o),
(203,739,cs),
(298,719,o),
(398,622,o),
(413,568,cs),
(414,565,o),
(411,562,o),
(408,564,cs)
);
},
{
closed = 1;
nodes = (
(384,73,o),
(379,73,o),
(378,76,cs),
(205,688,ls),
(204,691,o),
(207,692,o),
(209,690,cs),
(335,564,o),
(396,241,o),
(384,77,cs)
);
},
{
closed = 1;
nodes = (
(480,474,o),
(626,473,o),
(626,635,cs),
(626,813,o),
(391,800,o),
(391,800,c),
(81,800,ls),
(58,800,o),
(40,782,o),
(40,759,cs),
(40,42,ls),
(40,19,o),
(58,1,o),
(81,1,cs),
(543,1,ls),
(587,1,o),
(729,45,o),
(729,231,cs),
(729,418,o),
(593,452,o),
(546,462,cs)
);
}
);
width = 729;
}
);
unicode = 66;
},
{
glyphname = C;
lastChange = "2023-12-13 23:23:33 +0000";
layers = (
{
layerId = m01;
shapes = (
{
closed = 1;
nodes = (
(480,380,ls),
(456,380,o),
(437,362,o),
(438,337,cs),
(440,294,o),
(443,249,o),
(444,212,cs),
(445,187,o),
(460,66,o),
(418,67,cs),
(389,68,o),
(399,188,o),
(399,211,cs),
(399,270,o),
(404,334,o),
(404,400,cs),
(404,464,o),
(399,526,o),
(397,583,cs),
(396,606,o),
(386,725,o),
(414,725,cs),
(455,725,o),
(443,608,o),
(442,583,cs),
(442,548,o),
(440,512,o),
(438,475,cs),
(437,450,o),
(456,432,o),
(480,432,cs),
(791,432,ls),
(818,432,o),
(839,454,o),
(833,481,cs),
(790,671,o),
(605,815,o),
(422,815,cs),
(212,815,o),
(0,628,o),
(0,398,cs),
(0,166,o),
(212,-20,o),
(422,-20,cs),
(609,-20,o),
(797,135,o),
(836,332,cs),
(841,359,o),
(821,380,o),
(794,380,cs)
);
}
);
width = 857;
}
);
unicode = 67;
},
{
glyphname = D;
lastChange = "2023-12-12 14:59:33 +0000";
layers = (
{
layerId = m01;
shapes = (
{
closed = 1;
nodes = (
(464,58,o),
(437,52,o),
(422,71,cs),
(412,85,o),
(371,325,o),
(353,405,cs),
(323,540,o),
(237,708,o),
(288,736,cs),
(372,782,o),
(352,545,o),
(380,410,cs),
(408,276,o),
(477,135,o),
(468,79,cs)
);
},
{
closed = 1;
nodes = (
(87,803,l),
(64,803,o),
(46,785,o),
(46,762,c),
(46,41,l),
(46,18,o),
(64,0,o),
(87,0,c),
(392,0,l),
(584,0,o),
(756,179,o),
(756,402,c),
(756,624,o),
(563,803,o),
(371,803,c)
);
}
);
width = 770;
}
);
unicode = 68;
},
{
color = 0;
glyphname = E;
lastChange = "2023-12-14 02:10:28 +0000";
layers = (
{
layerId = m01;
shapes = (
{
closed = 1;
nodes = (
(389,507,ls),
(388,487,o),
(403,471,o),
(423,471,cs),
(639,471,ls),
(662,471,o),
(680,489,o),
(680,512,cs),
(680,763,ls),
(680,786,o),
(662,804,o),
(639,804,cs),
(80,802,ls),
(54,802,o),
(40,787,o),
(40,762,cs),
(40,42,ls),
(40,20,o),
(58,2,o),
(80,2,cs),
(639,0,ls),
(662,0,o),
(680,18,o),
(680,41,cs),
(680,291,ls),
(680,314,o),
(662,332,o),
(639,332,cs),
(428,332,ls),
(408,332,o),
(393,316,o),
(394,296,cs),
(397,194,ls),
(398,174,o),
(408,67,o),
(374,67,cs),
(365,67,o),
(359,90,o),
(359,109,cs),
(359,147,o),
(361,186,o),
(361,225,cs),
(362,341,ls),
(362,382,o),
(361,423,o),
(360,463,cs),
(358,551,ls),
(357,579,o),
(356,607,o),
(356,635,cs),
(356,645,o),
(355,664,o),
(354,687,cs),
(353,709,o),
(360,727,o),
(369,727,cs),
(403,727,o),
(394,630,o),
(393,609,cs)
);
},
{
closed = 1;
nodes = (
(214,376,l),
(455,376,l),
(455,431,l),
(214,431,l)
);
}
);
width = 720;
}
);
unicode = 69;
},
{
color = 0;
glyphname = Eacute;
lastChange = "2023-12-13 23:41:05 +0000";
layers = (
{
layerId = m01;
shapes = (
{
closed = 1;
nodes = (
(512,940,o),
(501,919,o),
(478,913,cs),
(305,865,ls),
(270,855,o),
(232,874,o),
(239,904,cs),
(255,969,o),
(350,1045,o),
(421,1059,cs),
(441,1064,o),
(459,1053,o),
(467,1036,cs),
(503,960,ls)
);
},
{
closed = 1;
nodes = (
(389,517,ls),
(388,497,o),
(403,481,o),
(423,481,cs),
(639,481,ls),
(662,481,o),
(680,499,o),
(680,522,cs),
(680,763,ls),
(680,786,o),
(662,804,o),
(639,804,cs),
(80,802,ls),
(54,802,o),
(40,787,o),
(40,762,cs),
(40,42,ls),
(40,20,o),
(58,2,o),
(80,2,cs),
(639,0,ls),
(662,0,o),
(680,18,o),
(680,41,cs),
(680,281,ls),
(680,304,o),
(662,322,o),
(639,322,cs),
(428,322,ls),
(408,322,o),
(393,306,o),
(394,286,cs),
(397,194,ls),
(398,174,o),
(408,67,o),
(374,67,cs),
(365,67,o),
(359,90,o),
(359,109,cs),
(359,147,o),
(361,186,o),
(361,225,cs),
(362,341,ls),
(362,382,o),
(361,423,o),
(360,463,cs),
(358,551,ls),
(357,579,o),
(356,607,o),
(356,635,cs),
(356,645,o),
(355,664,o),
(354,687,cs),
(353,709,o),
(360,727,o),
(369,727,cs),
(403,727,o),
(394,630,o),
(393,609,cs)
);
},
{
closed = 1;
nodes = (
(214,376,l),
(455,376,l),
(455,431,l),
(214,431,l)
);
}
);
width = 720;
}
);
unicode = 201;
},
{
color = 0;
glyphname = F;
lastChange = "2023-12-14 02:10:52 +0000";
layers = (
{
layerId = m01;
shapes = (
{
closed = 1;
nodes = (
(81,803,ls),
(56,803,o),
(42,789,o),
(41,766,c),
(40,764,o),
(40,762,o),
(40,760,cs),
(40,40,ls),
(40,14,o),
(54,0,o),
(80,0,cs),
(317,0,ls),
(340,0,o),
(358,11,o),
(358,26,cs),
(358,72,o),
(360,120,o),
(361,169,cs),
(361,188,o),
(361,207,o),
(362,240,cs),
(362,263,o),
(361,286,o),
(362,309,cs),
(363,342,ls),
(363,354,o),
(362,365,o),
(362,377,c),
(456,377,l),
(456,432,l),
(361,432,l),
(361,443,o),
(361,453,o),
(361,464,cs),
(359,552,ls),
(358,580,o),
(357,608,o),
(357,636,cs),
(357,646,o),
(356,665,o),
(355,688,cs),
(354,710,o),
(361,728,o),
(370,728,cs),
(404,728,o),
(395,631,o),
(394,610,cs),
(390,508,ls),
(389,488,o),
(404,472,o),
(424,472,cs),
(640,472,ls),
(663,472,o),
(681,490,o),
(681,513,cs),
(681,764,ls),
(681,787,o),
(663,805,o),
(640,805,cs)
);
}
);
width = 681;
}
);
unicode = 70;
},
{
glyphname = G;
lastChange = "2023-12-13 23:38:57 +0000";
layers = (
{
layerId = m01;
shapes = (
{
closed = 1;
nodes = (
(364,325,l),
(762,325,l),
(762,380,l),
(364,380,l)
);
},
{
closed = 1;
nodes = (
(480,380,ls),
(455,380,o),
(437,362,o),
(438,337,cs),
(444,215,ls),
(445,190,o),
(460,68,o),
(418,68,cs),
(389,68,o),
(398,191,o),
(399,214,cs),
(397,586,ls),
(396,609,o),
(386,728,o),
(414,728,cs),
(455,728,o),
(443,611,o),
(442,586,cs),
(438,475,ls),
(437,451,o),
(455,432,o),
(479,432,cs),
(791,432,ls),
(818,432,o),
(839,454,o),
(833,481,cs),
(792,673,o),
(606,818,o),
(422,818,cs),
(212,818,o),
(0,631,o),
(0,401,cs),
(0,169,o),
(212,-17,o),
(422,-17,cs),
(608,-17,o),
(797,134,o),
(835,332,cs),
(840,359,o),
(820,380,o),
(793,380,cs)
);
}
);
width = 876;
}
);
unicode = 71;
},
{
glyphname = H;
lastChange = "2023-12-13 20:42:46 +0000";
layers = (
{
layerId = m01;
shapes = (
{
closed = 1;
nodes = (
(359,121,o),
(362,226,o),
(362,334,cs),
(362,438,o),
(357,540,o),
(356,633,cs),
(355,652,o),
(353,705,o),
(353,757,cs),
(354,782,o),
(336,800,o),
(312,800,cs),
(80,800,ls),
(54,800,o),
(40,785,o),
(40,760,cs),
(40,40,ls),
(40,14,o),
(54,0,o),
(80,0,cs),
(317,0,ls),
(340,0,o),
(358,11,o),
(358,26,cs)
);
},
{
closed = 1;
nodes = (
(444,800,ls),
(420,800,o),
(402,782,o),
(403,757,cs),
(403,705,o),
(401,651,o),
(400,633,cs),
(399,538,o),
(391,438,o),
(394,333,cs),
(398,229,o),
(401,120,o),
(403,27,cs),
(403,24,o),
(403,19,o),
(404,14,c),
(404,6,o),
(421,0,o),
(443,0,cs),
(680,0,ls),
(706,0,o),
(720,14,o),
(720,40,cs),
(720,760,ls),
(720,785,o),
(706,800,o),
(680,800,cs)
);
},
{
closed = 1;
nodes = (
(354,543,l),
(399,543,l),
(399,598,l),
(354,598,l)
);
}
);
width = 760;
}
);
unicode = 72;
},
{
glyphname = I;
lastChange = "2023-12-05 17:29:12 +0000";
layers = (
{
layerId = m01;
shapes = (
{
closed = 1;
nodes = (
(40,41,ls),
(40,18,o),
(58,0,o),
(81,0,cs),
(286,0,ls),
(309,0,o),
(327,18,o),
(327,41,cs),
(327,759,ls),
(327,782,o),
(309,800,o),
(286,800,cs),
(81,800,ls),
(58,800,o),
(40,782,o),
(40,759,cs)
);
}
);
width = 367;
}
);
unicode = 73;
},
{
glyphname = J;
lastChange = "2023-12-08 02:47:56 +0000";
layers = (
{
layerId = m01;
shapes = (
{
closed = 1;
nodes = (
(353,800,ls),
(325,800,o),
(312,783,o),
(318,755,cs),
(469,64,l),
(458,64,o),
(411,198,o),
(360,350,cs),
(351,377,o),
(346,394,o),
(320,394,cs),
(69,394,ls),
(43,394,o),
(27,378,o),
(31,348,cs),
(61,139,o),
(192,-20,o),
(424,-20,cs),
(541,-20,o),
(636,78,o),
(636,199,cs),
(636,759,ls),
(636,786,o),
(622,800,o),
(596,800,cs)
);
}
);
width = 666;
}
);
unicode = 74;
},
{
glyphname = K;
lastChange = "2023-12-04 19:23:42 +0000";
layers = (
{
layerId = m01;
shapes = (
{
closed = 1;
nodes = (
(584,556,o),
(680,679,o),
(735,761,cs),
(749,783,o),
(733,800,o),
(701,800,cs),
(427,800,ls),
(402,800,o),
(388,785,o),
(387,760,cs),
(385,708,o),
(381,638,o),
(379,592,cs),
(377,567,o),
(372,553,o),
(365,553,cs),
(357,553,o),
(347,568,o),
(347,593,cs),
(347,760,ls),
(347,785,o),
(333,800,o),
(307,800,cs),
(70,800,ls),
(44,800,o),
(30,785,o),
(30,760,cs),
(30,40,ls),
(30,14,o),
(44,0,o),
(70,0,cs),
(307,0,ls),
(333,0,o),
(347,14,o),
(347,40,cs),
(347,478,ls),
(347,504,o),
(357,518,o),
(365,518,cs),
(373,518,o),
(378,504,o),
(379,479,cs),
(395,39,l),
(396,14,o),
(410,0,o),
(435,0,cs),
(725,0,ls),
(753,0,o),
(768,16,o),
(760,45,cs),
(713,198,o),
(601,447,o),
(479,524,c)
);
}
);
width = 792;
}
);
unicode = 75;
},
{
glyphname = L;
lastChange = "2023-11-29 20:55:49 +0000";
layers = (
{
layerId = m01;
shapes = (
{
closed = 1;
nodes = (
(31,111,l),
(30,111,l),
(30,41,ls),
(30,15,o),
(44,1,o),
(70,1,cs),
(543,1,ls),
(556,1,o),
(566,15,o),
(566,30,cs),
(566,261,ls),
(566,284,o),
(552,300,o),
(536,294,cs)
);
},
{
closed = 1;
nodes = (
(316,243,ls),
(328,249,o),
(335,262,o),
(335,275,cs),
(335,760,ls),
(335,783,o),
(325,801,o),
(302,801,cs),
(61,801,ls),
(44,801,o),
(30,786,o),
(30,769,cs),
(30,97,l)
);
}
);
width = 566;
}
);
unicode = 76;
},
{
glyphname = M;
lastChange = "2023-12-13 20:09:29 +0000";
layers = (
{
layerId = m01;
shapes = (
{
closed = 1;
nodes = (
(587,799,o),
(486,819,o),
(447,703,cs),
(431,656,l),
(414,703,ls),
(372,818,o),
(274,800,o),
(81,799,cs),
(59,799,o),
(40,780,o),
(40,758,cs),
(40,41,ls),
(40,18,o),
(58,0,o),
(81,0,cs),
(306,0,ls),
(336,0,o),
(356,24,o),
(349,54,cs),
(311,217,o),
(263,394,o),
(226,541,cs),
(219,571,o),
(169,724,o),
(217,724,cs),
(249,724,o),
(269,580,o),
(275,552,cs),
(304,404,o),
(336,222,o),
(372,59,cs),
(380,22,o),
(403,-1,o),
(430,-1,cs),
(457,-1,o),
(480,22,o),
(488,59,cs),
(524,222,o),
(556,404,o),
(585,552,cs),
(591,580,o),
(611,724,o),
(643,724,cs),
(691,724,o),
(641,571,o),
(634,541,cs),
(597,394,o),
(549,217,o),
(511,54,cs),
(504,24,o),
(524,0,o),
(554,0,cs),
(780,0,ls),
(803,0,o),
(821,18,o),
(821,41,cs),
(821,758,ls),
(821,780,o),
(802,799,o),
(780,799,cs)
);
}
);
width = 861;
}
);
unicode = 77;
},
{
glyphname = N;
lastChange = "2023-12-13 23:51:47 +0000";
layers = (
{
layerId = m01;
shapes = (
{
closed = 1;
nodes = (
(500,799,ls),
(470,799,o),
(450,774,o),
(457,745,cs),
(494,580,o),
(543,394,o),
(579,248,cs),
(586,218,o),
(636,67,o),
(588,67,cs),
(556,67,o),
(537,220,o),
(531,248,cs),
(499,405,o),
(466,597,o),
(428,768,cs),
(424,786,o),
(408,799,o),
(390,799,cs),
(81,799,ls),
(58,799,o),
(40,780,o),
(40,757,cs),
(40,41,ls),
(40,18,o),
(58,0,o),
(81,0,cs),
(302,0,ls),
(331,0,o),
(352,24,o),
(345,53,cs),
(308,219,o),
(259,406,o),
(222,554,cs),
(215,584,o),
(165,726,o),
(213,726,cs),
(245,726,o),
(265,582,o),
(271,554,cs),
(302,396,o),
(335,201,o),
(375,29,cs),
(379,11,o),
(394,0,o),
(412,0,cs),
(707,0,ls),
(730,0,o),
(748,18,o),
(748,41,cs),
(748,757,ls),
(748,780,o),
(730,799,o),
(707,799,cs)
);
}
);
width = 788;
}
);
unicode = 78;
},
{
glyphname = O;
lastChange = "2023-12-14 00:11:09 +0000";
layers = (
{
layerId = m01;
shapes = (
{
closed = 1;
nodes = (
(387,95,o),
(396,208,o),
(396,232,c),
(397,290,o),
(399,354,o),
(402,420,c),
(399,484,o),
(396,546,o),
(395,603,c),
(394,626,o),
(383,740,o),
(412,748,c),
(457,760,o),
(443,628,o),
(442,603,c),
(441,545,o),
(438,485,o),
(436,420,c),
(439,355,o),
(442,289,o),
(444,232,c),
(446,207,o),
(461,75,o),
(417,87,c)
);
},
{
closed = 1;
nodes = (
(211,835,o),
(0,648,o),
(0,418,c),
(0,186,o),
(211,0,o),
(421,0,c),
(629,0,o),
(840,186,o),
(840,418,c),
(840,648,o),
(629,835,o),
(421,835,c)
);
}
);
width = 840;
}
);
unicode = 79;
},
{
glyphname = Q;
lastChange = "2023-12-13 23:18:21 +0000";
layers = (
{
layerId = m01;
shapes = (
{
closed = 1;
nodes = (
(681,63,o),
(515,12,o),
(523,13,c),
(465,-32,ls),
(410,-75,o),
(453,-132,o),
(489,-132,cs),
(834,-132,ls),
(860,-132,o),
(874,-118,o),
(874,-92,cs),
(874,7,ls),
(874,35,o),
(857,49,o),
(830,43,cs),
(541,-18,l),
(646,43,ls)
);
},
{
closed = 1;
nodes = (
(415,69,o),
(425,189,o),
(425,212,cs),
(425,271,o),
(430,335,o),
(430,401,cs),
(430,465,o),
(425,527,o),
(423,584,cs),
(422,607,o),
(412,726,o),
(439,726,cs),
(479,726,o),
(467,609,o),
(466,584,cs),
(465,526,o),
(460,466,o),
(460,400,cs),
(460,336,o),
(466,270,o),
(468,213,cs),
(469,188,o),
(484,67,o),
(443,68,cs)
);
},
{
closed = 1;
nodes = (
(244,816,o),
(40,629,o),
(40,399,cs),
(40,167,o),
(244,-19,o),
(447,-19,cs),
(649,-19,o),
(852,167,o),
(852,399,cs),
(852,629,o),
(649,816,o),
(447,816,cs)
);
}
);
width = 914;
}
);
unicode = 81;
},
{
glyphname = R;
lastChange = "2023-12-13 17:06:03 +0000";
layers = (
{
annotations = (
{
pos = (366,-34);
type = Text;
}
);
layerId = m01;
shapes = (
{
closed = 1;
nodes = (
(193,736,ls),
(192,737,o),
(191,739,o),
(192,740,c),
(193,743,o),
(198,742,o),
(203,741,cs),
(298,721,o),
(398,624,o),
(413,570,cs),
(414,567,o),
(411,564,o),
(408,566,cs)
);
},
{
closed = 1;
nodes = (
(683,1,ls),
(705,1,o),
(723,17,o),
(723,40,cs),
(723,90,o),
(717,151,o),
(706,185,cs),
(680,258,o),
(629,298,o),
(577,336,cs),
(404,464,ls),
(401,466,o),
(403,471,o),
(407,471,cs),
(462,471,ls),
(559,471,o),
(626,550,o),
(626,637,cs),
(626,815,o),
(391,802,o),
(391,802,c),
(81,802,ls),
(59,802,o),
(40,784,o),
(40,761,cs),
(40,44,ls),
(40,21,o),
(58,0,o),
(81,0,cs),
(310,0,ls),
(340,0,o),
(359,9,o),
(353,38,cs),
(213,688,ls),
(212,691,o),
(217,693,o),
(219,690,cs),
(308,576,o),
(382,242,o),
(389,40,cs),
(390,10,o),
(407,1,o),
(429,1,cs)
);
}
);
width = 723;
}
);
unicode = 82;
},
{
glyphname = S;
lastChange = "2023-12-13 17:17:29 +0000";
layers = (
{
layerId = m01;
shapes = (
{
closed = 1;
nodes = (
(577,438,o),
(500,452,o),
(444,465,cs),
(426,471,o),
(367,476,o),
(355,494,cs),
(347,506,o),
(344,531,o),
(344,560,cs),
(347,829,o),
(383,819,o),
(389,549,cs),
(389,522,o),
(404,496,o),
(429,496,cs),
(640,496,ls),
(663,496,o),
(677,506,o),
(677,525,cs),
(677,588,o),
(552,817,o),
(364,817,cs),
(220,817,o),
(59,629,o),
(59,529,cs),
(59,470,o),
(118,422,o),
(173,403,cs),
(232,380,o),
(296,373,o),
(355,349,cs),
(370,342,o),
(396,349,o),
(396,326,cs),
(396,24,o),
(344,-180,o),
(344,284,cs),
(344,312,o),
(330,326,o),
(305,326,cs),
(79,327,ls),
(52,327,o),
(37,312,o),
(41,284,cs),
(69,123,o),
(232,-15,o),
(364,-15,cs),
(451,-15,o),
(531,39,o),
(586,105,cs),
(668,195,o),
(716,322,o),
(624,399,cs)
);
}
);
width = 714;
}
);
unicode = 83;
},
{
glyphname = T;
lastChange = "2023-12-14 00:10:38 +0000";
layers = (
{
layerId = m01;
shapes = (
{
closed = 1;
nodes = (
(365,578,o),
(256,599,o),
(273,621,cs),
(284,636,o),
(374,605,o),
(392,600,cs),
(716,507,ls),
(732,503,o),
(746,517,o),
(746,540,cs),
(746,771,ls),
(746,786,o),
(736,800,o),
(723,800,cs),
(40,800,ls),
(14,800,o),
(0,786,o),
(0,760,cs),
(0,719,ls),
(0,701,o),
(11,688,o),
(29,683,cs),
(210,637,l),
(210,32,ls),
(210,15,o),
(224,0,o),
(241,0,cs),
(482,0,ls),
(505,0,o),
(515,18,o),
(515,41,cs),
(515,511,ls),
(515,529,o),
(504,544,o),
(486,548,cs),
(450,557,o),
(416,565,o),
(385,573,cs)
);
}
);
width = 746;
}
);
unicode = 84;
},
{
glyphname = U;
lastChange = "2023-12-13 20:29:36 +0000";
layers = (
{
layerId = m01;
shapes = (
{
closed = 1;
nodes = (
(426,803,ls),
(403,803,o),
(386,786,o),
(386,763,cs),
(386,592,o),
(395,400,o),
(400,244,cs),
(401,215,o),
(415,47,o),
(369,47,cs),
(337,47,o),
(349,216,o),
(350,244,cs),
(354,401,o),
(363,592,o),
(361,763,cs),
(361,786,o),
(344,803,o),
(321,803,cs),
(81,803,ls),
(58,803,o),
(40,785,o),
(40,762,cs),
(41,316,ls),
(41,97,o),
(195,-19,o),
(375,-20,cs),
(556,-21,o),
(708,97,o),
(709,316,cs),
(711,762,ls),
(711,785,o),
(693,803,o),
(670,803,cs)
);
}
);
width = 751;
}
);
unicode = 85;
},
{
glyphname = V;
lastChange = "2023-12-13 23:15:54 +0000";
layers = (
{
layerId = m01;
shapes = (
{
closed = 1;
nodes = (
(364,402,o),
(374,591,o),
(374,761,cs),
(374,784,o),
(357,801,o),
(334,801,cs),
(64,801,ls),
(35,801,o),
(15,777,o),
(21,748,cs),
(85,463,o),
(236,-22,o),
(384,-22,cs),
(533,-22,o),
(683,463,o),
(748,748,cs),
(755,777,o),
(735,801,o),
(706,801,cs),
(439,801,ls),
(416,801,o),
(399,784,o),
(399,761,cs),
(397,591,o),
(406,402,o),
(410,247,cs),
(411,219,o),
(420,73,o),
(389,73,cs),
(343,73,o),
(359,217,o),
(360,247,cs)
);
}
);
width = 769;
}
);
unicode = 86;
},
{
glyphname = W;
lastChange = "2023-12-13 23:13:39 +0000";
layers = (
{
layerId = m01;
shapes = (
{
closed = 1;
nodes = (
(832,-10,o),
(849,9,o),
(851,31,cs),
(921,748,ls),
(923,771,o),
(903,789,o),
(880,789,cs),
(584,789,ls),
(554,789,o),
(534,765,o),
(541,735,cs),
(579,572,o),
(627,395,o),
(664,248,cs),
(671,218,o),
(721,65,o),
(673,65,cs),
(641,65,o),
(621,209,o),
(615,237,cs),
(586,385,o),
(554,567,o),
(518,730,cs),
(510,767,o),
(487,790,o),
(460,790,cs),
(433,790,o),
(410,767,o),
(402,730,cs),
(366,567,o),
(334,385,o),
(305,237,cs),
(299,209,o),
(279,65,o),
(247,65,cs),
(199,65,o),
(249,218,o),
(256,248,cs),
(293,395,o),
(341,572,o),
(379,735,cs),
(386,765,o),
(366,789,o),
(336,789,cs),
(41,789,ls),
(18,789,o),
(-2,771,o),
(0,748,cs),
(70,31,ls),
(72,9,o),
(89,-10,o),
(111,-10,cs),
(304,-11,o),
(402,-29,o),
(444,86,cs),
(461,133,l),
(477,86,ls),
(516,-30,o),
(617,-10,o),
(810,-10,cs)
);
}
);
width = 921;
}
);
unicode = 87;
},
{
glyphname = X;
lastChange = "2023-12-04 17:24:38 +0000";
layers = (
{
layerId = m01;
shapes = (
{
closed = 1;
nodes = (
(597,403,o),
(776,666,o),
(810,788,cs),
(813,802,o),
(799,809,o),
(772,809,cs),
(492,809,ls),
(467,809,o),
(452,802,o),
(452,789,cs),
(449,687,o),
(431,446,o),
(420,446,cs),
(401,446,o),
(390,687,o),
(389,789,cs),
(389,802,o),
(375,809,o),
(349,809,cs),
(68,809,ls),
(41,809,o),
(27,802,o),
(31,788,cs),
(65,667,o),
(244,404,o),
(420,403,cs)
);
},
{
closed = 1;
nodes = (
(244,405,o),
(65,142,o),
(31,21,cs),
(27,7,o),
(41,0,o),
(68,0,cs),
(349,0,ls),
(375,0,o),
(389,7,o),
(389,20,cs),
(390,122,o),
(401,363,o),
(420,363,cs),
(431,363,o),
(449,122,o),
(452,20,cs),
(452,7,o),
(467,0,o),
(492,0,cs),
(772,0,ls),
(799,0,o),
(813,7,o),
(810,21,cs),
(776,143,o),
(597,406,o),
(420,406,cs)
);
}
);
width = 810;
}
);
unicode = 88;
},
{
glyphname = Y;
lastChange = "2023-11-29 20:18:48 +0000";
layers = (
{
layerId = m01;
shapes = (
{
closed = 1;
nodes = (
(367,378,o),
(380,380,o),
(391,383,c),
(311,41,l),
(306,18,o),
(321,0,o),
(344,0,c),
(535,0,l),
(552,0,o),
(562,14,o),
(566,31,c),
(709,666,o),
(588,154,o),
(740,787,c),
(744,805,o),
(725,809,o),
(706,809,c),
(451,809,l),
(429,809,o),
(415,802,o),
(415,788,c),
(412,680,o),
(395,426,o),
(385,426,c),
(368,426,o),
(357,680,o),
(356,788,c),
(356,802,o),
(343,809,o),
(319,809,c),
(64,809,l),
(40,809,o),
(27,802,o),
(30,787,cs),
(45,712,o),
(49,633,o),
(75,560,cs),
(108,467,o),
(179,406,o),
(277,388,cs),
(302,384,o),
(329,378,o),
(355,378,cs)
);
}
);
width = 741;
}
);
unicode = 89;
},
{
glyphname = C.001;
lastChange = "2023-12-12 16:22:07 +0000";
layers = (
{
layerId = m01;
shapes = (
{
closed = 1;
nodes = (
(455,376,ls),
(431,376,o),
(413,358,o),
(414,334,cs),
(415,321,o),
(416,308,o),
(418,293,cs),
(437,139,o),
(414,58,o),
(399,58,cs),
(383,58,o),
(360,139,o),
(379,293,cs),
(392,402,o),
(373,481,o),
(367,591,cs),
(361,691,o),
(383,744,o),
(398,744,cs),
(413,744,o),
(436,694,o),
(430,591,cs),
(427,545,o),
(423,503,o),
(419,462,cs),
(416,437,o),
(435,417,o),
(461,417,cs),
(748,417,ls),
(774,417,o),
(794,437,o),
(790,464,cs),
(756,662,o),
(576,818,o),
(399,818,cs),
(200,818,o),
(0,631,o),
(0,401,cs),
(0,169,o),
(200,-17,o),
(399,-17,cs),
(576,-17,o),
(755,131,o),
(790,329,cs),
(794,355,o),
(774,376,o),
(748,376,cs)
);
}
);
width = 833;
}
);
},
{
glyphname = G.001;
lastChange = "2023-12-12 16:23:57 +0000";
layers = (
{
guides = (
{
pos = (-44,474);
}
);
layerId = m01;
shapes = (
{
closed = 1;
nodes = (
(455,376,ls),
(431,376,o),
(413,358,o),
(414,334,cs),
(415,321,o),
(416,308,o),
(418,293,cs),
(437,139,o),
(414,58,o),
(399,58,cs),
(383,58,o),
(360,139,o),
(379,293,cs),
(392,402,o),
(373,481,o),
(367,591,cs),
(361,691,o),
(383,744,o),
(398,744,cs),
(413,744,o),
(436,694,o),
(430,591,cs),
(427,545,o),
(423,503,o),
(419,462,cs),
(416,437,o),
(435,417,o),
(461,417,cs),
(748,417,ls),
(774,417,o),
(794,437,o),
(790,464,cs),
(756,662,o),
(576,818,o),
(399,818,cs),
(200,818,o),
(0,631,o),
(0,401,cs),
(0,169,o),
(200,-17,o),
(399,-17,cs),
(576,-17,o),
(755,131,o),
(790,329,cs),
(794,355,o),
(774,376,o),
(748,376,cs)
);
},
{
closed = 1;
nodes = (
(364,330,l),
(762,330,l),
(762,375,l),
(364,375,l)
);
}
);
width = 844;
}
);
},
{
color = 0;
glyphname = a;
lastChange = "2023-12-08 09:36:15 +0000";
layers = (
{
layerId = m01;
shapes = (
{
closed = 1;
nodes = (
(286,534,o),
(297,329,cs),
(309,96,o),
(245,94,o),
(255,324,cs),
(265,550,o)
);
},
{
closed = 1;
nodes = (
(0,179,o),
(28,90,o),
(86,32,cs),
(109,9,o),
(136,0,o),
(162,0,c),
(211,0,o),
(259,32,o),
(286,77,cs),
(305,107,o),
(334,177,o),
(344,177,cs),
(346,177,o),
(347,174,o),
(347,166,cs),
(346,49,ls),
(346,26,o),
(364,8,o),
(387,8,cs),
(528,8,ls),
(551,8,o),
(569,26,o),
(569,49,cs),
(569,568,ls),
(569,591,o),
(551,609,o),
(528,609,cs),
(348,609,ls),
(325,609,o),
(307,592,o),
(307,557,c),
(284,597,o),
(254,614,o),
(220,614,cs),
(170,614,o),
(114,575,o),
(72,519,cs),
(18,446,o),
(0,359,o),
(0,269,cs)
);
}
);
width = 609;
}
);
unicode = 97;
},
{
color = 0;
glyphname = b;
lastChange = "2023-12-08 10:01:12 +0000";
layers = (
{
layerId = m01;
shapes = (
{
closed = 1;
nodes = (
(427,96,o),
(424,96,o),
(423,98,c),
(315,482,l),
(314,484,o),
(316,484,o),
(317,483,cs),
(389,411,o),
(428,235,o),
(428,127,cs),
(428,116,o),
(428,107,o),
(427,98,cs)
);
},
{
closed = 1;
nodes = (
(40,19,o),
(58,0,o),
(81,0,cs),
(220,-1,ls),
(243,-1,o),
(261,17,o),
(261,40,cs),
(261,91,l),
(271,50,o),
(308,0,o),
(427,0,cs),
(466,0,o),
(499,13,o),
(529,37,cs),
(588,87,o),
(611,163,o),
(617,237,cs),
(618,252,o),
(618,266,o),
(619,280,cs),
(619,334,o),
(615,391,o),
(602,445,cs),
(590,496,o),
(573,551,o),
(532,586,cs),
(503,612,o),
(467,626,o),
(430,626,cs),
(408,626,o),
(385,621,o),
(364,610,cs),
(311,583,o),
(293,531,o),
(272,480,c),
(269,475,o),
(262,476,o),
(262,482,cs),
(262,816,ls),
(262,839,o),
(244,857,o),
(221,857,cs),
(81,857,ls),
(58,857,o),
(40,839,o),
(40,816,cs),
(40,41,ls)
);
}
);
width = 659;
}
);
unicode = 98;
},
{
glyphname = c;
lastChange = "2023-12-08 08:53:28 +0000";
layers = (
{
layerId = m01;
shapes = (
{
closed = 1;
nodes = (
(358,283,ls),
(343,283,o),
(331,272,o),
(331,254,cs),
(327,-51,o),
(294,-49,o),
(294,300,c),
(294,314,o),
(295,329,o),
(295,342,cs),
(304,637,o),
(319,629,o),
(331,344,cs),
(331,327,o),
(343,314,o),
(358,314,cs),
(551,314,ls),
(570,314,o),
(583,330,o),
(579,350,cs),
(558,500,o),
(435,617,o),
(313,617,cs),
(177,617,o),
(40,476,o),
(40,301,cs),
(40,124,o),
(177,-18,o),
(313,-18,cs),
(434,-18,o),
(557,98,o),
(579,249,cs),
(583,268,o),
(570,283,o),
(551,283,cs)
);
}
);
width = 600;
}
);
unicode = 99;
},
{
glyphname = e;
lastChange = "2023-12-13 05:30:17 +0000";
layers = (
{
guides = (
{
pos = (210,60);
}
);
layerId = m01;
shapes = (
{
closed = 1;
nodes = (
(188,314,l),
(334,314,l),
(334,350,l),
(188,350,l)
);
},
{
closed = 1;
nodes = (
(338,283,ls),
(323,283,o),
(311,272,o),
(311,254,cs),
(307,-51,o),
(274,-49,o),
(274,300,c),
(274,314,o),
(275,329,o),
(275,342,cs),
(284,637,o),
(299,629,o),
(311,344,cs),
(311,327,o),
(323,314,o),
(338,314,cs),
(531,314,ls),
(550,314,o),
(563,330,o),
(559,350,cs),
(538,500,o),
(415,617,o),
(293,617,cs),
(157,617,o),
(20,476,o),
(20,301,cs),
(20,124,o),
(157,-18,o),
(293,-18,cs),
(414,-18,o),
(537,98,o),
(559,249,cs),
(563,268,o),
(550,283,o),
(531,283,cs)
);
}
);
width = 600;
}
);
unicode = 101;
},
{
glyphname = eacute;
lastChange = "2023-12-08 06:42:48 +0000";
layers = (
{
layerId = m01;
shapes = (
{
closed = 1;
nodes = (
(208,314,l),
(354,314,l),
(354,350,l),
(208,350,l)
);
},
{
closed = 1;
nodes = (
(358,283,ls),
(343,283,o),
(331,272,o),
(331,254,cs),
(327,-51,o),
(294,-49,o),
(294,300,c),
(294,314,o),
(295,329,o),
(295,342,cs),
(304,637,o),
(319,629,o),
(331,344,cs),
(331,327,o),
(343,314,o),
(358,314,cs),
(551,314,ls),
(570,314,o),
(583,330,o),
(579,350,cs),
(558,500,o),
(435,617,o),
(313,617,cs),
(177,617,o),
(40,476,o),
(40,301,cs),
(40,124,o),
(177,-18,o),
(313,-18,cs),
(434,-18,o),
(557,98,o),
(579,249,cs),
(583,268,o),
(570,283,o),
(551,283,cs)
);
},
{
closed = 1;
nodes = (
(432,730,o),
(421,709,o),
(398,703,cs),
(225,655,ls),
(190,645,o),
(152,664,o),
(159,694,cs),
(175,759,o),
(270,835,o),
(341,849,cs),
(361,854,o),
(379,843,o),
(387,826,cs),
(423,750,ls)
);
}
);
width = 620;
}
);
unicode = 233;
},
{
color = 0;
glyphname = f;
lastChange = "2023-12-08 09:33:26 +0000";
layers = (
{
layerId = m01;
shapes = (
{
closed = 1;
nodes = (
(40,41,ls),
(40,18,o),
(58,0,o),
(81,0,cs),
(227,0,ls),
(250,0,o),
(268,18,o),
(268,41,cs),
(268,600,l),
(40,600,l)
);
},
{
closed = 1;
nodes = (
(267,600,l),
(267,609,o),
(268,619,o),
(268,627,cs),
(281,869,o),
(295,861,o),
(310,628,cs),
(310,615,o),
(323,604,o),
(341,604,cs),
(488,604,ls),
(507,604,o),
(523,617,o),
(520,634,cs),
(493,757,o),
(427,852,o),
(289,852,cs),
(139,852,o),
(26,740,o),
(41,600,c)
);
},
{
closed = 1;
nodes = (
(405,340,ls),
(413,345,o),
(420,355,o),
(420,365,cs),
(420,395,ls),
(420,415,o),
(404,431,o),
(384,431,cs),
(232,431,l),
(104,149,l)
);
}
);
width = 460;
}
);
unicode = 102;
},
{
color = 0;
glyphname = g;
lastChange = "2023-12-08 09:33:29 +0000";
layers = (
{
layerId = m01;
shapes = (
{
closed = 1;
nodes = (
(418,-322,o),
(239,-338,o),
(162,-254,cs),
(120,-210,o),
(89,-122,o),
(121,-177,cs),
(257,-406,o),
(626,-120,o),
(504,-241,cs)
);
},
{
closed = 1;
nodes = (
(10,208,o),
(109,98,o),
(209,67,cs),
(197,69,o),
(186,64,o),
(178,55,cs),
(150,25,o),
(107,-31,o),
(100,-87,cs),
(98,-103,o),
(94,-121,o),
(85,-130,c),
(52,-175,o),
(47,-239,o),
(52,-301,cs),
(67,-467,o),
(198,-520,o),
(311,-497,cs),
(520,-454,o),
(605,-270,o),
(583,-130,cs),
(557,41,o),
(430,41,o),
(302,15,cs),
(289,12,o),
(225,-4,o),
(221,18,cs),
(219,25,o),
(225,30,o),
(232,33,cs),
(272,55,o),
(325,58,o),
(369,73,cs),
(415,89,o),
(456,112,o),
(490,144,cs),
(543,196,o),
(575,264,o),
(575,336,cs),
(575,440,o),
(512,530,o),
(428,579,c),
(575,567,ls),
(595,565,o),
(606,574,o),
(608,594,cs),
(616,667,ls),
(619,689,o),
(605,699,o),
(583,697,cs),
(290,665,l),
(266,651,o),
(263,631,o),
(269,616,c),
(136,603,o),
(10,482,o),
(10,336,cs)
);
},
{
closed = 1;
nodes = (
(267,636,o),
(318,636,o),
(318,336,cs),
(318,16,o),
(267,16,o),
(267,336,cs)
);
}
);
width = 576;
}
);
unicode = 103;
},
{
glyphname = h;
lastChange = "2023-12-08 05:04:28 +0000";
layers = (
{
layerId = m01;
shapes = (
{
closed = 1;
nodes = (
(548,554,o),
(536,569,o),
(523,582,cs),
(457,646,o),
(365,606,o),
(323,537,cs),
(311,518,o),
(300,497,o),
(290,476,cs),
(276,445,o),
(264,418,o),
(262,448,cs),
(262,460,l),
(265,809,ls),
(265,832,o),
(247,850,o),
(224,850,cs),
(81,850,ls),
(58,850,o),
(40,832,o),
(40,809,cs),
(40,41,ls),
(40,18,o),
(58,0,o),
(81,0,cs),
(261,0,ls),
(284,0,o),
(301,17,o),
(302,40,cs),
(306,193,o),
(326,455,o),
(329,455,cs),
(340,455,o),
(348,190,o),
(354,40,cs),
(355,17,o),
(373,1,o),
(395,1,cs),
(551,1,ls),
(574,1,o),
(592,19,o),
(592,45,cs),
(593,390,o),
(603,474,o),
(558,539,cs)
);
}
);
width = 634;
}
);
unicode = 104;
},
{
glyphname = i;
lastChange = "2023-12-08 07:20:38 +0000";
layers = (
{
layerId = m01;
shapes = (
{
closed = 1;
nodes = (
(40,41,l),
(40,18,o),
(59,0,o),
(85,0,c),
(235,0,l),
(260,0,o),
(281,18,o),
(281,41,c),
(281,559,l),
(281,582,o),
(260,600,o),
(235,600,c),
(85,600,l),
(59,600,o),
(40,582,o),
(40,559,c)
);
},
{
closed = 1;
nodes = (
(119,851,o),
(66,808,o),
(66,755,c),
(66,703,o),
(119,660,o),
(161,660,c),
(203,660,o),
(256,703,o),
(256,755,c),
(256,808,o),
(203,851,o),
(161,851,cs)
);
}
);
width = 321;
}
);
unicode = 105;
},
{
glyphname = k;
lastChange = "2023-11-29 20:30:26 +0000";
layers = (
{
layerId = m01;
shapes = (
{
closed = 1;
nodes = (
(30,39,ls),
(30,16,o),
(48,-2,o),
(71,-2,cs),
(209,-2,ls),
(232,-2,o),
(250,16,o),
(250,39,cs),
(250,759,ls),
(250,782,o),
(232,800,o),
(209,800,cs),
(71,800,ls),
(48,800,o),
(30,782,o),
(30,759,cs)
);
},
{
closed = 1;
nodes = (
(250,348,l),
(253,354,o),
(256,357,o),
(259,357,cs),
(265,357,o),
(268,347,o),
(269,330,cs),
(280,26,ls),
(281,9,o),
(291,-1,o),
(308,-1,cs),
(508,-1,ls),
(528,-1,o),
(538,10,o),
(533,30,cs),
(500,136,o),
(423,308,o),
(338,361,c),
(411,383,o),
(477,468,o),
(515,525,cs),
(525,540,o),
(514,552,o),
(492,552,cs),
(302,552,ls),
(285,552,o),
(275,542,o),
(275,524,cs),
(273,488,o),
(271,440,o),
(269,408,cs),
(268,391,o),
(264,381,o),
(259,381,cs),
(256,381,o),
(253,384,o),
(250,390,c)
);
}
);
width = 564;
}
);
unicode = 107;
},
{
glyphname = l;
lastChange = "2023-12-08 08:52:37 +0000";
layers = (
{
layerId = m01;
shapes = (
{
closed = 1;
nodes = (
(268,252,l),
(268,811,ls),
(268,834,o),
(250,852,o),
(227,852,cs),
(81,852,ls),
(58,852,o),
(40,834,o),
(40,811,cs),
(40,252,l)
);
},
{
closed = 1;
nodes = (
(26,112,o),
(139,0,o),
(289,0,cs),
(427,0,o),
(493,95,o),
(520,218,cs),
(523,235,o),
(507,248,o),
(488,248,cs),
(341,248,ls),
(323,248,o),
(311,237,o),
(310,224,cs),
(295,-34,o),
(281,-42,o),
(268,225,cs),
(268,233,o),
(267,243,o),
(267,252,c),
(41,252,l)
);
}
);
width = 600;
}
);
unicode = 108;
},
{
glyphname = m;
lastChange = "2023-12-08 06:57:52 +0000";
layers = (
{
layerId = m01;
shapes = (
{
closed = 1;
nodes = (
(817,597,o),
(784,615,o),
(748,615,cs),
(679,615,o),
(604,547,o),
(576,443,c),
(553,530,o),
(528,620,o),
(446,620,cs),
(415,620,o),
(386,605,o),
(360,583,cs),
(311,540,o),
(277,433,o),
(265,433,cs),
(262,433,o),
(261,440,o),
(261,455,cs),
(261,475,o),
(263,510,o),
(263,559,cs),
(263,582,o),
(245,600,o),
(222,600,cs),
(81,600,ls),
(58,600,o),
(40,582,o),
(40,559,cs),
(40,41,ls),
(40,18,o),
(58,0,o),
(81,0,cs),
(261,0,ls),
(284,0,o),
(301,17,o),
(302,40,cs),
(316,563,o),
(343,560,o),
(354,40,cs),
(354,17,o),
(373,1,o),
(395,1,cs),
(552,1,l),
(552,0,l),
(575,1,o),
(591,17,o),
(592,40,cs),
(606,563,o),
(633,560,o),
(644,40,cs),
(644,17,o),
(663,1,o),
(685,1,cs),
(841,1,ls),
(864,1,o),
(882,19,o),
(882,45,cs),
(882,170,o),
(882,495,o),
(843,558,cs)
);
}
);
width = 922;
}
);
unicode = 109;
},
{
glyphname = n;
lastChange = "2023-12-08 06:36:07 +0000";
layers = (
{
layerId = m01;
shapes = (
{
closed = 1;
nodes = (
(81,599,ls),
(58,599,o),
(40,581,o),
(40,558,cs),
(40,40,ls),
(40,17,o),
(58,-1,o),
(81,-1,cs),
(261,-1,ls),
(284,-1,o),
(301,16,o),
(302,39,cs),
(316,561,o),
(354,660,o),
(354,39,cs),
(354,16,o),
(373,0,o),
(395,0,cs),
(551,0,ls),
(574,0,o),
(592,18,o),
(592,44,cs),
(593,389,o),
(603,473,o),
(558,538,cs),
(548,553,o),
(536,568,o),
(523,581,cs),
(457,645,o),
(365,605,o),
(323,536,cs),
(302,502,o),
(262,404,o),
(262,447,cs),
(262,459,l),
(263,558,ls),
(263,581,o),
(245,599,o),
(222,599,cs)
);
}
);
width = 634;
}
);
unicode = 110;
},
{
glyphname = o;
lastChange = "2023-12-08 06:42:25 +0000";
layers = (
{
layerId = m01;
shapes = (
{
closed = 1;
nodes = (
(252,-65,o),
(252,297,c),
(252,636,o),
(300,636,o),
(300,297,c),
(300,-65,o)
);
},
{
closed = 1;
nodes = (
(143,617,o),
(10,474,o),
(10,299,c),
(10,126,o),
(143,-17,o),
(276,-17,c),
(410,-17,o),
(542,126,o),
(542,299,c),
(542,474,o),
(410,617,o),
(276,617,c)
);
}
);
width = 552;
}
);
unicode = 111;
},
{
color = 0;
glyphname = r;
lastChange = "2023-12-08 10:03:17 +0000";
layers = (
{
layerId = m01;
shapes = (
{
closed = 1;
nodes = (
(552,318,ls),
(576,318,o),
(594,336,o),
(593,361,cs),
(591,458,o),
(584,501,o),
(558,539,cs),
(548,554,o),
(536,569,o),
(523,582,cs),
(457,646,o),
(365,606,o),
(323,537,cs),
(311,518,o),
(300,497,o),
(290,476,cs),
(276,445,o),
(264,418,o),
(262,448,cs),
(262,460,l),
(263,559,ls),
(263,582,o),
(245,600,o),
(222,600,cs),
(81,600,ls),
(58,600,o),
(40,582,o),
(40,559,cs),
(40,41,ls),
(40,18,o),
(58,0,o),
(81,0,cs),
(261,0,ls),
(284,0,o),
(301,17,o),
(302,40,cs),
(306,193,o),
(326,455,o),
(329,455,cs),
(333,455,o),
(337,415,o),
(341,358,cs),
(342,334,o),
(359,318,o),
(381,318,cs)
);
}
);
width = 593;
}
);
unicode = 114;
},
{
color = 0;
glyphname = s;
lastChange = "2023-12-08 10:03:19 +0000";
layers = (
{
layerId = m01;
shapes = (
{
closed = 1;
nodes = (
(410,331,o),
(351,342,o),
(308,352,cs),
(294,356,o),
(249,370,o),
(240,374,cs),
(230,378,o),
(232,402,o),
(232,424,cs),
(234,630,o),
(262,622,o),
(266,416,cs),
(266,395,o),
(277,375,o),
(296,375,cs),
(458,375,ls),
(475,375,o),
(486,383,o),
(486,397,cs),
(486,445,o),
(391,620,o),
(247,620,cs),
(137,620,o),
(14,500,o),
(14,423,cs),
(14,378,o),
(59,329,o),
(101,315,cs),
(146,298,o),
(269,288,o),
(271,270,cs),
(291,40,o),
(232,-110,o),
(232,244,cs),
(232,266,o),
(221,276,o),
(202,276,cs),
(29,277,ls),
(9,277,o),
(-3,266,o),
(0,244,cs),
(21,121,o),
(146,-15,o),
(247,-15,cs),
(314,-15,o),
(374,26,o),
(417,77,cs),
(479,145,o),
(516,243,o),
(445,301,cs)
);
}
);
width = 526;
}
);
unicode = 115;
},
{
color = 0;
glyphname = t;
lastChange = "2023-12-08 10:02:00 +0000";
layers = (
{
layerId = m01;
shapes = (
{
closed = 1;
nodes = (
(268,252,l),
(268,811,ls),
(268,834,o),
(250,852,o),
(227,852,cs),
(81,852,ls),
(58,852,o),
(40,834,o),
(40,811,cs),
(40,252,l)
);
},
{
closed = 1;
nodes = (
(26,112,o),
(139,0,o),
(289,0,cs),
(427,0,o),
(493,95,o),
(520,218,cs),
(523,235,o),
(507,248,o),
(488,248,cs),
(341,248,ls),
(323,248,o),
(311,237,o),
(310,224,cs),
(295,-34,o),
(281,-42,o),
(268,225,cs),
(268,233,o),
(267,243,o),
(267,252,c),
(41,252,l)
);
},
{
closed = 1;
nodes = (
(405,510,ls),
(413,515,o),
(420,525,o),
(420,535,cs),
(420,565,ls),
(420,585,o),
(404,601,o),
(384,601,cs),
(232,601,l),
(104,319,l)
);
}
);
width = 560;
}
);
unicode = 116;
},
{
glyphname = u;
lastChange = "2023-12-08 06:35:40 +0000";
layers = (
{
layerId = m01;
shapes = (
{
closed = 1;
nodes = (
(553,14,ls),
(576,14,o),
(594,32,o),
(594,55,cs),
(594,573,ls),
(594,596,o),
(576,614,o),
(553,614,cs),
(373,614,ls),
(350,614,o),
(333,597,o),
(332,574,cs),
(318,52,o),
(280,-47,o),
(280,574,cs),
(280,597,o),
(261,613,o),
(239,613,cs),
(83,613,ls),
(60,613,o),
(42,595,o),
(42,569,cs),
(41,224,o),
(31,140,o),
(76,75,cs),
(86,60,o),
(98,45,o),
(111,32,cs),
(177,-32,o),
(269,8,o),
(311,77,cs),
(332,111,o),
(372,209,o),
(372,166,cs),
(372,154,l),
(371,55,ls),
(371,32,o),
(389,14,o),
(412,14,cs)
);
}
);
width = 634;
}
);
unicode = 117;
},
{
glyphname = v;
lastChange = "2023-12-07 18:22:44 +0000";
layers = (
{
layerId = m01;
shapes = (
{
closed = 1;
nodes = (
(398,-10,o),
(522,363,o),
(560,562,cs),
(564,585,o),
(547,600,o),
(527,600,cs),
(333,600,ls),
(316,600,o),
(302,588,o),
(302,568,cs),
(300,282,o),
(289,50,o),
(276,50,cs),
(264,50,o),
(252,282,o),
(250,568,cs),
(250,588,o),
(236,600,o),
(219,600,cs),
(25,600,ls),
(6,600,o),
(-10,576,o),
(-4,544,cs),
(38,341,o),
(157,-10,o),
(276,-10,cs)
);
}
);
width = 556;
}
);
unicode = 118;
},
{
glyphname = zero;
lastChange = "2023-12-07 05:14:15 +0000";
layers = (
{
layerId = m01;
shapes = (
{
closed = 1;
nodes = (
(405,-17,o),
(363,-17,o),
(352,343,cs),
(351,380,o),
(351,418,o),
(352,456,cs),
(358,873,o),
(408,818,o),
(416,456,cs),
(416,437,o),
(417,418,o),
(417,399,cs),
(417,380,o),
(417,362,o),
(416,343,cs)
);
},
{
closed = 1;
nodes = (
(213,817,o),
(40,630,o),
(40,400,cs),
(40,168,o),
(213,-18,o),
(385,-18,cs),
(555,-18,o),
(728,168,o),
(728,400,cs),
(728,630,o),
(555,817,o),
(385,817,cs)
);
}
);
width = 768;
}
);
unicode = 48;
},
{
glyphname = one;
lastChange = "2023-12-07 17:39:46 +0000";
layers = (
{
guides = (
{
angle = 0.5455;
pos = (153,472);
},
{
pos = (17,666);
}
);
layerId = m01;
shapes = (
{
closed = 1;
nodes = (
(0,549,ls),
(0,507,o),
(37,489,o),
(75,507,cs),
(241,584,ls),
(245,586,o),
(249,580,o),
(245,577,cs),
(100,474,ls),
(92,468,o),
(89,458,o),
(89,450,cs),
(91,41,ls),
(91,19,o),
(109,1,o),
(132,1,cs),
(300,1,ls),
(323,1,o),
(341,19,o),
(341,41,cs),
(341,760,ls),
(341,782,o),
(323,800,o),
(300,800,cs),
(41,800,ls),
(18,800,o),
(0,782,o),
(0,760,cs)
);
}
);
width = 381;
}
);
unicode = 49;
},
{
glyphname = two;
lastChange = "2023-12-14 02:13:10 +0000";
layers = (
{
layerId = m01;
shapes = (
{
closed = 1;
nodes = (
(574,325,cs),
(547,311,o),
(156,83,o),
(156,125,cs),
(156,146,o),
(362,272,o),
(403,299,cs),
(501,364,o),
(567,422,o),
(598,488,cs),
(686,678,o),
(492,818,o),
(346,818,cs),
(209,818,o),
(72,681,o),
(41,513,cs),
(37,489,o),
(53,469,o),
(73,469,cs),
(295,469,ls),
(313,469,o),
(327,486,o),
(326,508,cs),
(321,614,ls),
(320,636,o),
(313,739,o),
(344,739,cs),
(369,739,o),
(366,639,o),
(366,614,cs),
(366,537,o),
(343,487,o),
(297,424,c),
(252,363,o),
(179,332,o),
(130,274,c),
(78,212,o),
(47,134,o),
(47,41,cs),
(47,15,o),
(57,0,o),
(84,0,cs),
(579,0,ls),
(601,0,o),
(619,18,o),
(619,40,cs),
(619,292,ls),
(619,320,o),
(601,339,o)
);
}
);
width = 660;
}
);
unicode = 50;
},
{
glyphname = three;
lastChange = "2023-12-14 02:13:47 +0000";
layers = (
{
layerId = m01;
shapes = (
{
closed = 1;
nodes = (
(611,354,o),
(580,374,o),
(548,386,cs),
(535,391,o),
(522,395,o),
(509,400,c),
(522,404,o),
(535,408,o),
(548,413,cs),
(612,438,o),
(657,483,o),
(659,545,cs),
(662,599,o),
(636,656,o),
(604,696,cs),
(537,782,o),
(428,819,o),
(354,819,cs),
(207,819,o),
(70,675,o),
(41,515,cs),
(37,490,o),
(53,470,o),
(74,470,cs),
(301,470,ls),
(320,470,o),
(334,487,o),
(333,510,cs),
(328,609,ls),
(327,631,o),
(320,747,o),
(351,747,cs),
(377,747,o),
(374,634,o),
(374,609,cs),
(374,541,o),
(363,495,o),
(328,442,cs),
(319,430,o),
(312,418,o),
(312,400,cs),
(312,379,o),
(316,374,o),
(328,357,cs),
(364,305,o),
(374,258,o),
(374,190,cs),
(374,165,o),
(377,47,o),
(351,47,cs),
(320,47,o),
(327,168,o),
(328,190,cs),
(333,288,ls),
(334,311,o),
(320,328,o),
(301,328,cs),
(74,328,ls),
(53,328,o),
(37,308,o),
(41,283,cs),
(71,123,o),
(208,-20,o),
(354,-20,cs),
(424,-20,o),
(537,17,o),
(604,103,cs),
(636,143,o),
(661,200,o),
(659,254,cs),
(658,280,o),
(649,305,o),
(632,327,cs)
);
}
);
width = 699;
}
);
unicode = 51;
},
{
glyphname = four;
lastChange = "2023-12-14 01:39:26 +0000";
layers = (
{
layerId = m01;
shapes = (
{
closed = 1;
nodes = (
(401,38,ls),
(401,15,o),
(419,-3,o),
(442,-3,cs),
(612,-3,ls),
(635,-3,o),
(653,15,o),
(653,38,cs),
(653,762,ls),
(653,785,o),
(635,803,o),
(612,803,cs),
(362,803,ls),
(339,803,o),
(401,785,o),
(401,762,cs)
);
},
{
closed = 1;
nodes = (
(198,801,ls),
(179,801,o),
(163,788,o),
(160,769,cs),
(42,130,ls),
(37,104,o),
(41,90,o),
(67,90,cs),
(520,90,ls),
(533,90,o),
(543,104,o),
(543,119,cs),
(543,350,ls),
(543,373,o),
(529,390,o),
(513,383,cs),
(131,213,o),
(-29,135,o),
(333,362,cs),
(346,370,o),
(349,381,o),
(352,394,cs),
(423,749,ls),
(429,777,o),
(409,801,o),
(380,801,cs)
);
}
);
width = 693;
}
);
unicode = 52;
},
{
glyphname = five;
lastChange = "2023-12-14 02:06:34 +0000";
layers = (
{
layerId = m01;
shapes = (
{
closed = 1;
nodes = (
(515,396,o),
(444,425,o),
(373,461,cs),
(250,523,ls),
(238,529,o),
(240,545,o),
(252,545,cs),
(539,545,ls),
(563,545,o),
(566,576,o),
(567,603,cs),
(570,760,ls),
(570,784,o),
(553,801,o),
(529,801,cs),
(57,801,ls),
(35,801,o),
(16,783,o),
(16,760,cs),
(16,542,ls),
(16,489,o),
(35,432,o),
(112,401,c),
(139,391,o),
(169,385,o),
(197,378,cs),
(222,372,o),
(248,365,o),
(269,347,cs),
(316,305,o),
(328,249,o),
(328,189,cs),
(328,164,o),
(331,47,o),
(306,47,cs),
(275,47,o),
(282,167,o),
(283,189,cs),
(288,278,ls),
(289,301,o),
(275,318,o),
(256,318,cs),
(32,318,ls),
(12,318,o),
(0,299,o),
(0,273,cs),
(5,114,o),
(161,-20,o),
(308,-20,cs),
(482,-20,o),
(634,163,o),
(548,331,cs)
);
}
);
width = 670;
}
);
unicode = 53;
},
{
color = 0;
glyphname = six;
lastChange = "2023-12-14 01:40:44 +0000";
layers = (
{
layerId = m01;
shapes = (
{
closed = 1;
nodes = (
(272,407,l),
(272,408,o),
(275,409,o),
(277,408,c),
(381,350,o),
(419,170,o),
(419,95,c),
(419,93,o),
(414,93,o),
(414,94,c)
);
},
{
closed = 1;
nodes = (
(322,404,o),
(333,574,cs),
(344,730,o),
(367,868,o),
(372,542,c),
(373,514,o),
(387,501,o),
(411,501,c),
(624,501,l),
(646,501,o),
(661,512,o),
(661,531,cs),
(661,535,o),
(660,540,o),
(658,545,c),
(616,682,o),
(496,818,o),
(356,818,cs),
(171,818,o),
(30,585,o),
(30,408,cs),
(30,275,o),
(91,139,o),
(201,59,c),
(257,18,o),
(310,2,o),
(381,4,cs),
(504,7,o),
(658,184,o),
(658,316,cs),
(658,340,o),
(654,362,o),
(643,381,cs),
(580,500,o)
);
}
);
width = 701;
}
);
unicode = 54;
},
{
glyphname = seven;
lastChange = "2023-12-07 17:24:30 +0000";
layers = (
{
layerId = m01;
shapes = (
{
closed = 1;
nodes = (
(385,-1,ls),
(404,-1,o),
(420,12,o),
(423,31,cs),
(541,760,ls),
(545,786,o),
(542,800,o),
(516,800,cs),
(23,800,ls),
(10,800,o),
(0,786,o),
(0,771,cs),
(0,540,ls),
(0,517,o),
(14,500,o),
(30,507,cs),
(412,677,o),
(612,755,o),
(250,528,cs),
(237,520,o),
(233,509,o),
(231,496,cs),
(160,51,ls),
(156,23,o),
(174,-1,o),
(203,-1,cs)
);
}
);
width = 582;
}
);
unicode = 55;
},
{
color = 0;
glyphname = eight;
lastChange = "2023-12-08 10:03:11 +0000";
layers = (
{
layerId = m01;
shapes = (
{
closed = 1;
nodes = (
(380,21,o),
(342,21,o),
(342,235,c),
(342,395,o),
(380,395,o),
(380,235,c)
);
},
{
closed = 1;
nodes = (
(371,831,o),
(371,539,c),
(371,473,o),
(341,473,o),
(341,539,c),
(341,831,o)
);
},
{
closed = 1;
nodes = (
(602,371,o),
(472,403,c),
(538,421,o),
(645,457,o),
(645,553,cs),
(645,674,o),
(493,814,o),
(356,820,c),
(219,814,o),
(67,674,o),
(67,553,cs),
(67,458,o),
(171,422,o),
(240,403,c),
(109,371,o),
(4,333,o),
(51,213,c),
(100,92,o),
(232,-14,o),
(356,-15,c),
(481,-14,o),
(613,92,o),
(661,213,c),
(708,334,o)
);
}
);
width = 712;
}
);
unicode = 56;
},
{
color = 0;
glyphname = nine;
lastChange = "2023-12-08 09:33:34 +0000";
layers = (
{
layerId = m01;
shapes = (
{
closed = 1;
nodes = (
(344,769,o),
(344,579,cs),
(344,388,o),
(307,396,o),
(307,579,cs),
(307,761,o)
);
},
{
closed = 1;
nodes = (
(40,106,o),
(203,-18,o),
(321,-18,cs),
(522,-18,o),
(642,187,o),
(642,391,cs),
(642,596,o),
(522,800,o),
(321,800,cs),
(201,800,o),
(113,694,o),
(68,576,cs),
(59,552,o),
(54,525,o),
(54,498,cs),
(54,446,o),
(73,396,o),
(119,374,cs),
(167,350,o),
(220,358,o),
(272,351,cs),
(295,348,o),
(323,340,o),
(335,314,cs),
(337,309,o),
(338,291,o),
(338,268,cs),
(338,89,o),
(312,-68,o),
(302,280,cs),
(301,301,o),
(289,317,o),
(272,317,cs),
(72,317,ls),
(49,317,o),
(40,297,o),
(40,267,cs)
);
}
);
width = 682;
}
);
unicode = 57;
},
{
glyphname = five.001;
lastChange = "2023-12-12 09:13:03 +0000";
layers = (
{
layerId = m01;
shapes = (
{
closed = 1;
nodes = (
(303,743,o),
(311,743,cs),
(320,743,o),
(329,675,o),
(332,526,cs),
(333,497,o),
(345,485,o),
(368,485,cs),
(565,485,ls),
(590,485,o),
(595,502,o),
(595,529,cs),
(598,759,ls),
(598,783,o),
(581,800,o),
(557,800,cs),
(71,800,ls),
(48,800,o),
(30,782,o),
(30,759,cs),
(30,524,ls),
(30,424,o),
(210,423,o),
(300,383,cs),
(331,369,o),
(341,313,o),
(341,252,cs),
(341,185,o),
(323,74,o),
(309,74,cs),
(299,74,o),
(291,126,o),
(291,277,cs),
(291,305,o),
(279,320,o),
(255,320,cs),
(35,321,ls),
(12,321,o),
(-3,307,o),
(1,279,cs),
(25,121,o),
(186,-16,o),
(308,-16,cs),
(472,-16,o),
(624,160,o),
(624,297,cs),
(624,336,o),
(610,372,o),
(580,400,cs),
(539,439,o),
(332,442,o),
(306,483,cs),
(299,496,o),
(296,520,o),
(296,549,cs),
(296,674,o)
);
}
);
width = 664;
}
);
},
{
color = 0;
glyphname = six.001;
lastChange = "2023-12-14 02:07:04 +0000";
layers = (
{
layerId = m01;
shapes = (
{
closed = 1;
nodes = (
(381,380,ls),
(362,380,o),
(347,362,o),
(348,337,cs),
(349,294,o),
(352,249,o),
(352,212,cs),
(353,187,o),
(365,66,o),
(332,67,cs),
(309,68,o),
(317,188,o),
(317,211,cs),
(317,270,o),
(321,334,o),
(321,400,cs),
(321,464,o),
(317,526,o),
(315,583,cs),
(314,606,o),
(306,725,o),
(329,725,cs),
(361,725,o),
(352,608,o),
(351,583,cs),
(351,548,o),
(349,552,o),
(348,515,cs),
(347,490,o),
(362,472,o),
(381,472,cs),
(628,472,ls),
(649,472,o),
(666,494,o),
(661,521,cs),
(627,711,o),
(480,815,o),
(335,815,cs),
(168,815,o),
(0,628,o),
(0,398,cs),
(0,166,o),
(168,-20,o),
(335,-20,cs),
(483,-20,o),
(632,135,o),
(663,332,cs),
(667,359,o),
(652,380,o),
(630,380,cs)
);
}
);
width = 691;
}
);
},
{
glyphname = seven.001;
lastChange = "2023-12-14 05:05:09 +0000";
layers = (
{
layerId = m01;
shapes = (
{
closed = 1;
nodes = (
(46,481,cs),
(73,495,o),
(464,723,o),
(464,681,cs),
(464,660,o),
(258,534,o),
(217,507,cs),
(119,442,o),
(53,384,o),
(22,318,cs),
(-66,128,o),
(128,-12,o),
(274,-12,cs),
(411,-12,o),
(548,125,o),
(579,293,cs),
(583,317,o),
(567,337,o),
(547,337,cs),
(325,337,ls),
(307,337,o),
(293,320,o),
(294,298,cs),
(299,192,ls),
(300,170,o),
(307,67,o),
(276,67,cs),
(251,67,o),
(254,167,o),
(254,192,cs),
(254,269,o),
(277,319,o),
(323,382,c),
(368,443,o),
(441,474,o),
(490,532,c),
(542,594,o),
(573,672,o),
(573,765,cs),
(573,791,o),
(563,806,o),
(536,806,cs),
(41,806,ls),
(19,806,o),
(1,788,o),
(1,766,cs),
(1,514,ls),
(1,486,o),
(19,467,o)
);
}
);
width = 620;
}
);
},
{
glyphname = period;
lastChange = "2023-12-07 05:13:38 +0000";
layers = (
{
layerId = m01;
shapes = (
{
closed = 1;
nodes = (
(93,172,o),
(40,129,o),
(40,76,cs),
(40,24,o),
(93,-19,o),
(135,-19,cs),
(177,-19,o),
(230,24,o),
(230,76,cs),
(230,129,o),
(177,172,o),
(135,172,c)
);
}
);
width = 270;
}
);
unicode = 46;
},
{
glyphname = comma;
lastChange = "2023-12-07 15:50:26 +0000";
layers = (
{
layerId = m01;
shapes = (
{
closed = 1;
nodes = (
(204,171,ls),
(226,171,o),
(247,159,o),
(248,139,cs),
(255,66,o),
(195,-57,o),
(121,-101,cs),
(87,-121,o),
(50,-94,o),
(50,-57,cs),
(50,127,ls),
(50,152,o),
(71,171,o),
(98,171,cs)
);
}
);
width = 299;
}
);
unicode = 44;
},
{
glyphname = semicolon;
lastChange = "2023-12-07 15:50:22 +0000";
layers = (
{
layerId = m01;
shapes = (
{
closed = 1;
nodes = (
(107,617,o),
(54,574,o),
(54,521,cs),
(54,469,o),
(107,426,o),
(149,426,cs),
(191,426,o),
(244,469,o),
(244,521,cs),
(244,574,o),
(191,617,o),
(149,617,cs)
);
},
{
closed = 1;
nodes = (
(204,171,ls),
(226,171,o),
(247,159,o),
(248,139,cs),
(255,66,o),
(195,-57,o),
(121,-101,cs),
(87,-121,o),
(50,-94,o),
(50,-57,cs),
(50,127,ls),
(50,152,o),
(71,171,o),
(98,171,cs)
);
}
);
width = 299;
}
);
unicode = 59;
},
{
glyphname = exclam;
lastChange = "2023-12-05 17:56:42 +0000";
layers = (
{
layerId = m01;
shapes = (
{
closed = 1;
nodes = (
(40,236,o),
(58,219,o),
(81,219,cs),
(216,219,ls),
(239,219,o),
(257,236,o),
(257,259,cs),
(257,761,ls),
(257,784,o),
(239,801,o),
(216,801,cs),
(81,801,ls),
(58,801,o),
(40,784,o),
(40,761,cs),
(40,259,ls)
);
},
{
closed = 1;
nodes = (
(107,171,o),
(54,128,o),
(54,75,cs),
(54,23,o),
(107,-20,o),
(149,-20,cs),
(191,-20,o),
(244,23,o),
(244,75,cs),
(244,128,o),
(191,171,o),
(149,171,c)
);
}
);
width = 297;
}
);
unicode = 33;
},
{
glyphname = question;
lastChange = "2023-12-06 09:30:08 +0000";
layers = (
{
layerId = m01;
shapes = (
{
closed = 1;
nodes = (
(127,829,o),
(0,628,o),
(0,562,cs),
(0,545,o),
(15,535,o),
(36,535,cs),
(226,535,ls),
(251,535,o),
(265,547,o),
(266,571,cs),
(274,782,o),
(311,814,o),
(315,626,cs),
(316,598,o),
(314,568,o),
(298,542,cs),
(282,514,o),
(259,491,o),
(242,462,cs),
(213,415,o),
(195,360,o),
(188,306,cs),
(186,287,o),
(184,270,o),
(184,253,cs),
(183,232,o),
(201,216,o),
(225,216,cs),
(361,216,ls),
(384,216,o),
(402,231,o),
(402,252,cs),
(404,347,o),
(415,382,o),
(496,455,cs),
(563,514,o),
(580,569,o),
(580,622,cs),
(580,726,o),
(421,829,o),
(301,829,cs)
);
},
{
pos = (161,0);
ref = period;
}
);
width = 620;
}
);
unicode = 63;
},
{
glyphname = hyphen;
lastChange = "2023-12-05 18:38:57 +0000";
layers = (
{
layerId = m01;
shapes = (
{
closed = 1;
nodes = (
(40,278,ls),
(40,255,o),
(58,237,o),
(81,237,cs),
(319,237,ls),
(342,237,o),
(360,255,o),
(360,278,cs),
(360,400,ls),
(360,423,o),
(342,441,o),
(319,441,cs),
(81,441,ls),
(58,441,o),
(40,423,o),
(40,400,cs)
);
}
);
width = 400;
}
);
unicode = 45;
},
{
color = 0;
glyphname = parenleft;
lastChange = "2023-12-08 10:01:49 +0000";
layers = (
{
layerId = m01;
shapes = (
{
closed = 1;
nodes = (
(313,850,ls),
(330,850,o),
(341,835,o),
(335,819,cs),
(283,678,o),
(230,529,o),
(230,349,cs),
(230,169,o),
(283,20,o),
(335,-121,cs),
(341,-137,o),
(330,-152,o),
(313,-152,cs),
(266,-152,ls),
(258,-152,o),
(250,-149,o),
(243,-143,cs),
(120,-23,o),
(40,141,o),
(40,349,cs),
(40,557,o),
(120,721,o),
(243,841,cs),
(250,847,o),
(258,850,o),
(266,850,cs)
);
}
);
width = 377;
}
);
unicode = 40;
},
{
color = 0;
glyphname = parenright;
lastChange = "2023-12-08 10:01:49 +0000";
layers = (
{
layerId = m01;
shapes = (
{
closed = 1;
nodes = (
(119,850,o),
(127,847,o),
(134,841,cs),
(257,721,o),
(337,557,o),
(337,349,cs),
(337,141,o),
(257,-23,o),
(134,-143,cs),
(127,-149,o),
(119,-152,o),
(111,-152,cs),
(64,-152,ls),
(47,-152,o),
(36,-137,o),
(42,-121,cs),
(94,20,o),
(147,169,o),
(147,349,cs),
(147,529,o),
(94,678,o),
(42,819,cs),
(36,835,o),
(47,850,o),
(64,850,cs),
(111,850,ls)
);
}
);
width = 377;
}
);
unicode = 41;
},
{
color = 0;
glyphname = at;
lastChange = "2023-12-08 09:33:42 +0000";
layers = (
{
layerId = m01;
shapes = (
{
closed = 1;
nodes = (
(415,486,o),
(429,475,o),
(436,339,cs),
(444,185,o),
(402,184,o),
(409,336,cs)
);
},
{
closed = 1;
nodes = (
(818,617,o),
(622,818,o),
(430,818,cs),
(236,818,o),
(40,617,o),
(40,369,cs),
(40,179,o),
(154,17,o),
(294,-49,cs),
(325,-64,o),
(354,-41,o),
(354,-7,cs),
(354,56,ls),
(354,71,o),
(345,84,o),
(331,90,cs),
(228,135,o),
(175,224,o),
(175,369,cs),
(175,556,o),
(273,689,o),
(420,689,cs),
(678,689,o),
(796,361,o),
(657,174,cs),
(621,126,o),
(616,185,o),
(616,218,cs),
(616,497,ls),
(616,513,o),
(604,525,o),
(589,525,cs),
(470,525,ls),
(455,525,o),
(443,513,o),
(443,490,c),
(428,517,o),
(408,528,o),
(385,528,cs),
(352,528,o),
(315,502,o),
(288,465,cs),
(252,417,o),
(240,359,o),
(240,300,cs),
(240,240,o),
(258,181,o),
(297,143,cs),
(312,128,o),
(330,122,o),
(347,122,cs),
(379,122,o),
(411,143,o),
(429,173,cs),
(438,187,o),
(451,217,o),
(459,231,c),
(475,157,o),
(549,93,o),
(642,93,cs),
(727,93,o),
(775,154,o),
(798,233,cs),
(810,276,o),
(818,324,o),
(818,369,cs)
);
}
);
width = 858;
}
);
unicode = 64;
},
{
glyphname = ampersand;
lastChange = "2023-12-08 09:32:26 +0000";
layers = (
{
layerId = m01;
shapes = (
{
closed = 1;
nodes = (
(222,675,ls),
(221,676,o),
(220,678,o),
(221,678,c),
(222,680,o),
(226,680,o),
(232,679,cs),
(330,663,o),
(433,580,o),
(449,533,c),
(450,532,o),
(447,529,o),
(444,531,cs)
);
},
{
closed = 1;
nodes = (
(41,99,o),
(173,-6,o),
(299,-15,cs),
(346,-18,o),
(400,-13,o),
(433,21,c),
(448,-10,l),
(626,-8,ls),
(653,-8,o),
(674,11,o),
(674,37,cs),
(674,43,o),
(673,49,o),
(670,56,cs),
(630,165,ls),
(629,168,o),
(629,171,o),
(632,173,cs),
(702,219,o),
(784,335,o),
(784,410,cs),
(784,433,o),
(766,450,o),
(743,450,cs),
(613,450,ls),
(590,450,o),
(572,430,o),
(572,403,cs),
(572,326,o),
(571,316,o),
(570,320,cs),
(519,464,l),
(553,504,ls),
(578,532,o),
(585,567,o),
(585,603,cs),
(585,698,o),
(505,819,o),
(335,819,cs),
(212,819,o),
(85,723,o),
(85,603,cs),
(85,545,o),
(116,489,o),
(163,451,c),
(93,402,o),
(40,326,o),
(40,240,cs)
);
},
{
closed = 1;
nodes = (
(236,433,o),
(238,434,o),
(240,433,cs),
(342,370,o),
(416,182,o),
(419,81,c),
(420,78,o),
(417,78,o),
(416,80,cs),
(238,433,l)
);
}
);
width = 824;
}
);
unicode = 38;
},
{
glyphname = dollar;
lastChange = "2023-12-12 09:09:10 +0000";
layers = (
{
layerId = m01;
shapes = (
{
closed = 1;
nodes = (
(278,10,l),
(278,-49,ls),
(278,-72,o),
(297,-90,o),
(321,-90,cs),
(396,-90,ls),
(420,-90,o),
(438,-72,o),
(438,-49,cs),
(438,10,l)
);
},
{
closed = 1;
nodes = (
(577,438,o),
(500,452,o),
(444,465,cs),
(426,471,o),
(367,476,o),
(355,494,cs),
(347,506,o),
(344,531,o),
(344,560,cs),
(347,829,o),
(383,819,o),
(389,549,cs),
(389,522,o),
(404,496,o),
(429,496,cs),
(640,496,ls),
(663,496,o),
(677,506,o),
(677,525,cs),
(677,588,o),
(552,817,o),
(364,817,cs),
(220,817,o),
(59,659,o),
(59,559,cs),
(59,500,o),
(118,462,o),
(173,443,cs),
(232,420,o),
(296,415,o),
(355,391,cs),
(370,384,o),
(396,381,o),
(396,358,cs),
(396,56,o),
(344,-140,o),
(344,324,cs),
(344,352,o),
(330,366,o),
(305,366,cs),
(79,367,ls),
(52,367,o),
(37,352,o),
(41,324,cs),
(69,163,o),
(232,-15,o),
(364,-15,cs),
(451,-15,o),
(531,39,o),
(586,105,cs),
(668,195,o),
(716,322,o),
(624,399,cs)
);
},
{
closed = 1;
nodes = (
(329,900,l),
(329,790,l),
(404,790,l),
(404,900,l)
);
}
);
width = 717;
}
);
unicode = 36;
},
{
color = 0;
glyphname = euro;
lastChange = "2023-12-12 09:07:40 +0000";
layers = (
{
layerId = m01;
shapes = (
{
closed = 1;
nodes = (
(122,166,o),
(290,-16,o),
(457,-16,cs),
(567,-16,o),
(677,53,o),
(740,165,cs),
(758,198,o),
(734,231,o),
(698,231,cs),
(514,231,ls),
(492,231,o),
(475,215,o),
(474,192,cs),
(470,122,o),
(463,59,o),
(456,59,cs),
(448,59,o),
(437,171,o),
(434,345,cs),
(433,399,l),
(434,452,ls),
(437,626,o),
(448,738,o),
(456,738,cs),
(463,738,o),
(470,675,o),
(474,605,cs),
(475,582,o),
(492,566,o),
(514,566,cs),
(698,566,ls),
(734,566,o),
(758,599,o),
(740,632,cs),
(677,744,o),
(567,813,o),
(457,813,cs),
(290,813,o),
(122,631,o),
(118,403,c)
);
},
{
closed = 1;
nodes = (
(44,430,l),
(603,430,l),
(603,505,l),
(44,505,l)
);
},
{
closed = 1;
nodes = (
(44,288,l),
(603,288,l),
(603,363,l),
(44,363,l)
);
}
